<svg width="92" height="92" viewBox="0 0 92 92" fill="none" xmlns="http://www.w3.org/2000/svg">
<path d="M46.0001 26.8333C46.0001 22.7667 44.3846 18.8666 41.5091 15.991C38.6335 13.1155 34.7334 11.5 30.6667 11.5H7.66675V69H34.5001C37.5501 69 40.4751 70.2116 42.6318 72.3683C44.7885 74.5249 46.0001 77.45 46.0001 80.5M46.0001 26.8333V80.5M46.0001 26.8333C46.0001 22.7667 47.6156 18.8666 50.4911 15.991C53.3667 13.1155 57.2668 11.5 61.3334 11.5H84.3334V69H57.5001C54.4501 69 51.525 70.2116 49.3684 72.3683C47.2117 74.5249 46.0001 77.45 46.0001 80.5" stroke="#1E1E1E" stroke-width="4" stroke-linecap="round" stroke-linejoin="round"/>
</svg>
