<svg width="32" height="32" viewBox="0 0 32 32" fill="none" xmlns="http://www.w3.org/2000/svg">
<path d="M22.6667 4C23.0169 3.64981 23.4327 3.37202 23.8902 3.1825C24.3478 2.99298 24.8382 2.89543 25.3334 2.89543C25.8287 2.89543 26.3191 2.99298 26.7766 3.1825C27.2342 3.37202 27.6499 3.64981 28.0001 4C28.3503 4.35019 28.6281 4.76593 28.8176 5.22348C29.0071 5.68103 29.1047 6.17142 29.1047 6.66667C29.1047 7.16191 29.0071 7.65231 28.8176 8.10986C28.6281 8.5674 28.3503 8.98314 28.0001 9.33333L10.0001 27.3333L2.66675 29.3333L4.66675 22L22.6667 4Z" stroke="#1E1E1E" stroke-width="4" stroke-linecap="round" stroke-linejoin="round"/>
</svg>
