<svg width="32" height="32" viewBox="0 0 32 32" fill="none" xmlns="http://www.w3.org/2000/svg">
<g clip-path="url(#clip0_13_231)">
<path d="M14.6667 5.33334H5.33341C4.62617 5.33334 3.94789 5.61429 3.4478 6.11439C2.9477 6.61449 2.66675 7.29276 2.66675 8.00001V26.6667C2.66675 27.3739 2.9477 28.0522 3.4478 28.5523C3.94789 29.0524 4.62617 29.3333 5.33341 29.3333H24.0001C24.7073 29.3333 25.3856 29.0524 25.8857 28.5523C26.3858 28.0522 26.6667 27.3739 26.6667 26.6667V17.3333M24.6667 3.33334C25.1972 2.80291 25.9166 2.50491 26.6667 2.50491C27.4169 2.50491 28.1363 2.80291 28.6667 3.33334C29.1972 3.86377 29.4952 4.58319 29.4952 5.33334C29.4952 6.08349 29.1972 6.80291 28.6667 7.33334L16.0001 20L10.6667 21.3333L12.0001 16L24.6667 3.33334Z" stroke="#1E1E1E" stroke-width="4" stroke-linecap="round" stroke-linejoin="round"/>
</g>
<defs>
<clipPath id="clip0_13_231">
<rect width="32" height="32" fill="white"/>
</clipPath>
</defs>
</svg>
